<svg xmlns="http://www.w3.org/2000/svg" version="1.1" xmlns:xlink="http://www.w3.org/1999/xlink" xmlns:svgjs="http://svgjs.dev/svgjs" width="1500" height="1500" viewBox="0 0 1500 1500"><rect width="1500" height="1500" fill="#ffffff"></rect><g transform="matrix(0.6666666666666666,0,0,0.6666666666666666,249.39393939393938,635.8653480213372)"><svg viewBox="0 0 396 91" data-background-color="#ed2647" preserveAspectRatio="xMidYMid meet" height="344" width="1500" xmlns="http://www.w3.org/2000/svg" xmlns:xlink="http://www.w3.org/1999/xlink"><g id="tight-bounds" transform="matrix(1,0,0,1,0.2400000000000091,-0.21110466544337214)"><svg viewBox="0 0 395.52 91.42220933088672" height="91.42220933088672" width="395.52"><g><svg viewBox="0 0 395.52 91.42220933088672" height="91.42220933088672" width="395.52"><g><svg viewBox="0 0 545.2287748568201 126.02654527756653" height="91.42220933088672" width="395.52"><g transform="matrix(1,0,0,1,149.7087748568202,3.798063513307987)"><svg viewBox="0 0 395.5199999999999 118.43041825095055" height="118.43041825095055" width="395.5199999999999"><g id="textblocktransform"><svg viewBox="0 0 395.5199999999999 118.43041825095055" height="118.43041825095055" width="395.5199999999999" id="textblock"><g><svg viewBox="0 0 395.5199999999999 118.43041825095055" height="118.43041825095055" width="395.5199999999999"><g transform="matrix(1,0,0,1,0,0)"><svg width="395.5199999999999" viewBox="2.65 -47 157.79 47.25" height="118.43041825095055" data-palette-color="#ffffff"><path d="M30.15-11.15Q30.8-11.15 31.18-10.55 31.55-9.95 31.55-8.9L31.55-8.9Q31.55-6.9 30.6-5.8L30.6-5.8Q28.3-3.15 25.88-1.45 23.45 0.25 20.35 0.25L20.35 0.25Q17.8 0.25 16.5-1.23 15.2-2.7 15.2-5.5L15.2-5.5Q15.2-6.9 15.9-10.5L15.9-10.5Q16.55-13.65 16.55-14.85L16.55-14.85Q16.55-15.65 16-15.65L16-15.65Q15.35-15.65 14.15-13.98 12.95-12.3 11.75-9.55 10.55-6.8 9.8-3.75L9.8-3.75Q8.85 0.25 5.1 0.25L5.1 0.25Q3.6 0.25 3.13-0.83 2.65-1.9 2.65-4.7L2.65-4.7Q2.65-6.3 2.7-7.25L2.7-7.25 2.75-11.25Q2.75-18.95 4.33-27.3 5.9-35.65 8.97-41.33 12.05-47 16.35-47L16.35-47Q18.65-47 20.08-45.03 21.5-43.05 21.5-39.9L21.5-39.9Q21.5-34.85 18.55-29.43 15.6-24 8.95-16.75L8.95-16.75Q8.8-14.15 8.8-11.4L8.8-11.4Q10.45-15.65 12.48-18.32 14.5-21 16.48-22.15 18.45-23.3 20.1-23.3L20.1-23.3Q23.35-23.3 23.35-20.05L23.35-20.05Q23.35-18.1 22.25-13L22.25-13Q21.3-8.65 21.3-7.25L21.3-7.25Q21.3-5.25 22.75-5.25L22.75-5.25Q23.75-5.25 25.13-6.48 26.5-7.7 28.8-10.45L28.8-10.45Q29.4-11.15 30.15-11.15L30.15-11.15ZM15.3-42.05Q14.4-42.05 13.3-39.48 12.2-36.9 11.18-32.52 10.15-28.15 9.5-23L9.5-23Q12.6-26.65 14.63-30.95 16.65-35.25 16.65-38.75L16.65-38.75Q16.65-40.35 16.3-41.2 15.95-42.05 15.3-42.05L15.3-42.05ZM49.8-11.15Q50.45-11.15 50.82-10.55 51.2-9.95 51.2-8.9L51.2-8.9Q51.2-6.9 50.25-5.8L50.25-5.8Q48.4-3.55 45.02-1.65 41.65 0.25 37.8 0.25L37.8 0.25Q32.55 0.25 29.65-2.6 26.75-5.45 26.75-10.4L26.75-10.4Q26.75-13.85 28.2-16.82 29.65-19.8 32.22-21.55 34.8-23.3 38.05-23.3L38.05-23.3Q40.95-23.3 42.7-21.58 44.45-19.85 44.45-16.9L44.45-16.9Q44.45-13.45 41.97-10.98 39.5-8.5 33.6-7.05L33.6-7.05Q34.85-4.75 38.35-4.75L38.35-4.75Q40.6-4.75 43.47-6.33 46.35-7.9 48.45-10.45L48.45-10.45Q49.05-11.15 49.8-11.15L49.8-11.15ZM37.2-18.4Q35.35-18.4 34.07-16.25 32.8-14.1 32.8-11.05L32.8-11.05 32.8-10.95Q35.75-11.65 37.45-13.05 39.15-14.45 39.15-16.3L39.15-16.3Q39.15-17.25 38.62-17.82 38.1-18.4 37.2-18.4L37.2-18.4ZM76-11.15Q76.65-11.15 77.02-10.55 77.4-9.95 77.4-8.9L77.4-8.9Q77.4-6.9 76.45-5.8L76.45-5.8Q74.25-3.2 71.62-1.48 69 0.25 65.7 0.25L65.7 0.25Q63.15 0.25 61.17-0.7 59.2-1.65 58.05-3.4L58.05-3.4Q55.2 0.2 51.3 0.2L51.3 0.2Q48.55 0.2 46.95-1.4 45.35-3 45.35-5.65L45.35-5.65Q45.35-8.15 46.5-9.7 47.65-11.25 49.75-11.25L49.75-11.25Q51.55-11.25 51.55-9.9L51.55-9.9Q51.55-9.55 51.45-8.65L51.45-8.65Q51.3-6.85 51.3-6.6L51.3-6.6Q51.3-5.1 52.6-5.1L52.6-5.1Q53.55-5.1 54.42-6.23 55.3-7.35 55.87-9.3 56.45-11.25 56.45-13.6L56.45-13.6Q56.45-15.4 56-16.63 55.55-17.85 54.9-17.85L54.9-17.85Q54.35-17.85 54.1-17.57 53.85-17.3 53.6-16.65L53.6-16.65Q53.3-15.85 52.8-15.38 52.3-14.9 51.05-14.9L51.05-14.9Q49.95-14.9 49.3-15.68 48.65-16.45 48.65-18.05L48.65-18.05Q48.65-20.6 50.2-22.05 51.75-23.5 54.2-23.5L54.2-23.5Q56.3-23.5 58-22.48 59.7-21.45 60.6-19.5L60.6-19.5Q62.1-21.5 63.97-22.5 65.84-23.5 67.65-23.5L67.65-23.5Q69.59-23.5 70.62-22.6 71.65-21.7 71.65-19.7L71.65-19.7Q71.65-17.45 70.8-16.18 69.95-14.9 68.75-14.9L68.75-14.9Q67.65-14.9 67.25-15.35 66.84-15.8 66.65-16.65L66.65-16.65Q66.55-17.25 66.34-17.55 66.15-17.85 65.65-17.85L65.65-17.85Q65.05-17.85 64.37-16.73 63.7-15.6 63.22-13.75 62.75-11.9 62.75-9.9L62.75-9.9Q62.75-7.55 63.87-6.28 65-5 66.95-5L66.95-5Q68.9-5 70.62-6.33 72.34-7.65 74.65-10.45L74.65-10.45Q75.25-11.15 76-11.15L76-11.15ZM95.89-11.15Q96.54-11.15 96.92-10.55 97.29-9.95 97.29-8.9L97.29-8.9Q97.29-6.9 96.34-5.8L96.34-5.8Q94.19-3.15 91.64-1.45 89.09 0.25 85.79 0.25L85.79 0.25Q75.59 0.25 75.59-14.1L75.59-14.1Q75.59-16.3 75.74-18.55L75.74-18.55 73.79-18.55Q72.29-18.55 71.77-19.1 71.24-19.65 71.24-20.85L71.24-20.85Q71.24-23.65 73.49-23.65L73.49-23.65 76.34-23.65Q77.19-29.15 78.94-33.7 80.69-38.25 83.17-40.95 85.64-43.65 88.49-43.65L88.49-43.65Q90.59-43.65 91.79-41.8 92.99-39.95 92.99-37.15L92.99-37.15Q92.99-29.4 86.49-23.65L86.49-23.65 92.09-23.65Q92.89-23.65 93.24-23.3 93.59-22.95 93.59-22L93.59-22Q93.59-18.55 87.94-18.55L87.94-18.55 81.84-18.55Q81.74-16.05 81.74-14.65L81.74-14.65Q81.74-9.45 82.97-7.35 84.19-5.25 86.84-5.25L86.84-5.25Q88.99-5.25 90.64-6.55 92.29-7.85 94.54-10.45L94.54-10.45Q95.14-11.15 95.89-11.15L95.89-11.15ZM87.14-38.85Q86.39-38.85 85.47-36.98 84.54-35.1 83.72-31.78 82.89-28.45 82.34-24.4L82.34-24.4Q85.29-26.95 86.77-30.13 88.24-33.3 88.24-35.9L88.24-35.9Q88.24-38.85 87.14-38.85L87.14-38.85ZM115.54-11.15Q116.19-11.15 116.57-10.55 116.94-9.95 116.94-8.9L116.94-8.9Q116.94-6.9 115.99-5.8L115.99-5.8Q114.14-3.55 110.77-1.65 107.39 0.25 103.54 0.25L103.54 0.25Q98.29 0.25 95.39-2.6 92.49-5.45 92.49-10.4L92.49-10.4Q92.49-13.85 93.94-16.82 95.39-19.8 97.97-21.55 100.54-23.3 103.79-23.3L103.79-23.3Q106.69-23.3 108.44-21.58 110.19-19.85 110.19-16.9L110.19-16.9Q110.19-13.45 107.72-10.98 105.24-8.5 99.34-7.05L99.34-7.05Q100.59-4.75 104.09-4.75L104.09-4.75Q106.34-4.75 109.22-6.33 112.09-7.9 114.19-10.45L114.19-10.45Q114.79-11.15 115.54-11.15L115.54-11.15ZM102.94-18.4Q101.09-18.4 99.82-16.25 98.54-14.1 98.54-11.05L98.54-11.05 98.54-10.95Q101.49-11.65 103.19-13.05 104.89-14.45 104.89-16.3L104.89-16.3Q104.89-17.25 104.37-17.82 103.84-18.4 102.94-18.4L102.94-18.4ZM122.44 0.25Q117.54 0.25 114.81-2.53 112.09-5.3 112.09-9.85L112.09-9.85Q112.09-13.9 113.69-16.95 115.29-20 117.84-21.65 120.39-23.3 123.19-23.3L123.19-23.3Q125.94-23.3 127.46-21.68 128.99-20.05 128.99-17.5L128.99-17.5Q128.99-15.4 128.06-13.95 127.14-12.5 125.64-12.5L125.64-12.5Q124.69-12.5 124.11-12.95 123.54-13.4 123.54-14.2L123.54-14.2Q123.54-14.55 123.64-15 123.74-15.45 123.79-15.65L123.79-15.65Q124.04-16.4 124.04-17.05L124.04-17.05Q124.04-17.7 123.71-18.05 123.39-18.4 122.79-18.4L122.79-18.4Q121.64-18.4 120.64-17.38 119.64-16.35 119.04-14.6 118.44-12.85 118.44-10.75L118.44-10.75Q118.44-4.95 123.49-4.95L123.49-4.95Q125.54-4.95 127.91-6.33 130.29-7.7 132.59-10.45L132.59-10.45Q133.19-11.15 133.94-11.15L133.94-11.15Q134.59-11.15 134.96-10.55 135.34-9.95 135.34-8.9L135.34-8.9Q135.34-7 134.39-5.8L134.39-5.8Q132.04-2.9 128.76-1.33 125.49 0.25 122.44 0.25L122.44 0.25ZM159.04-11.15Q159.69-11.15 160.06-10.55 160.44-9.95 160.44-8.9L160.44-8.9Q160.44-6.9 159.49-5.8L159.49-5.8Q157.19-3.15 154.76-1.45 152.34 0.25 149.24 0.25L149.24 0.25Q146.69 0.25 145.39-1.23 144.09-2.7 144.09-5.5L144.09-5.5Q144.09-6.9 144.79-10.5L144.79-10.5Q145.44-13.65 145.44-14.85L145.44-14.85Q145.44-15.65 144.89-15.65L144.89-15.65Q144.24-15.65 143.04-13.98 141.84-12.3 140.64-9.55 139.44-6.8 138.69-3.75L138.69-3.75Q137.74 0.25 133.99 0.25L133.99 0.25Q132.49 0.25 132.01-0.83 131.54-1.9 131.54-4.7L131.54-4.7Q131.54-6.3 131.59-7.25L131.59-7.25 131.64-11.25Q131.64-18.95 133.21-27.3 134.79-35.65 137.86-41.33 140.94-47 145.24-47L145.24-47Q147.54-47 148.96-45.03 150.39-43.05 150.39-39.9L150.39-39.9Q150.39-34.85 147.44-29.43 144.49-24 137.84-16.75L137.84-16.75Q137.69-14.15 137.69-11.4L137.69-11.4Q139.34-15.65 141.36-18.32 143.39-21 145.36-22.15 147.34-23.3 148.99-23.3L148.99-23.3Q152.24-23.3 152.24-20.05L152.24-20.05Q152.24-18.1 151.14-13L151.14-13Q150.19-8.65 150.19-7.25L150.19-7.25Q150.19-5.25 151.64-5.25L151.64-5.25Q152.64-5.25 154.01-6.48 155.39-7.7 157.69-10.45L157.69-10.45Q158.29-11.15 159.04-11.15L159.04-11.15ZM144.19-42.05Q143.29-42.05 142.19-39.48 141.09-36.9 140.06-32.52 139.04-28.15 138.39-23L138.39-23Q141.49-26.65 143.51-30.95 145.54-35.25 145.54-38.75L145.54-38.75Q145.54-40.35 145.19-41.2 144.84-42.05 144.19-42.05L144.19-42.05Z" opacity="1" transform="matrix(1,0,0,1,0,0)" fill="#000000" class="wordmark-text-0" data-fill-palette-color="primary" id="text-0"></path></svg></g></svg></g></svg></g></svg></g><g><svg viewBox="0 0 121.7501954378088 126.02654527756653" height="126.02654527756653" width="121.7501954378088"><g><svg xmlns="http://www.w3.org/2000/svg" xmlns:xlink="http://www.w3.org/1999/xlink" version="1.1" x="0" y="0" viewBox="20.8 19.9 48.400000000000006 50.1" style="enable-background:new 0 0 90 90;" xml:space="preserve" height="126.02654527756653" width="121.7501954378088" class="icon-icon-0" data-fill-palette-color="accent" id="icon-0"><path d="M69.2 36.9L68 34.9 63.8 27.7H54.8L50.3 19.9H39.6L35.1 27.7H26.1L22 34.8 20.8 36.8V36.9L25.2 44.5 21.9 50.5 20.8 52.4 26.1 62.1H35.1L39.6 70H50.4L54.9 62.1H63.9L68.2 54.1 69.2 52.3V52.2L64.7 44.5zM65.5 52.7L62.1 58.7H54.9L51.3 52.4 54.9 46.1H62.1L65.7 52.3zM24.5 52.1L27.9 46.2H35.1L38.7 52.5 35.1 58.8H27.9L24.3 52.6zM24.6 36.4L27.9 31.1H35.4L38.8 36.9 35.2 43.1H28.2L24.4 36.8zM65.7 36.9L62 43.2H54.8L51.2 37 54.6 31.2H62.1L65.4 36.5zM52.2 60.2L48.6 66.4H41.4L37.8 60.2 41.4 53.9H48.6L50.4 57zM37.9 29.3L41.4 23.1H48.6L52.1 29.3 50.4 32.2 48.6 35.3H41.4L39.6 32.2zM48.6 50.9H41.4L37.8 44.6 41.4 38.4H48.6L50.4 41.5 52.2 44.6 50.4 47.7z" fill="#000000" data-fill-palette-color="accent"></path></svg></g></svg></g></svg></g></svg></g><defs></defs></svg><rect width="395.52" height="91.42220933088672" fill="none" stroke="none" visibility="hidden"></rect></g></svg></g></svg>